<?xml version="1.0" encoding="UTF-8" standalone="no"?>
<!-- Uploaded to: SVG Repo, www.svgrepo.com, Generator: SVG Repo Mixer Tools -->

<svg
   fill="#000000"
   height="800px"
   width="800px"
   version="1.1"
   id="Layer_1"
   viewBox="0 0 512.014 512.014"
   xml:space="preserve"
   sodipodi:docname="AceCameraInput.svg"
   inkscape:version="1.2.1 (9c6d41e410, 2022-07-14)"
   xmlns:inkscape="http://www.inkscape.org/namespaces/inkscape"
   xmlns:sodipodi="http://sodipodi.sourceforge.net/DTD/sodipodi-0.dtd"
   xmlns="http://www.w3.org/2000/svg"
   xmlns:svg="http://www.w3.org/2000/svg"><defs
   id="defs15" /><sodipodi:namedview
   id="namedview13"
   pagecolor="#ffffff"
   bordercolor="#000000"
   borderopacity="0.25"
   inkscape:showpageshadow="2"
   inkscape:pageopacity="0.0"
   inkscape:pagecheckerboard="0"
   inkscape:deskcolor="#d1d1d1"
   showgrid="false"
   inkscape:zoom="0.295"
   inkscape:cx="174.57627"
   inkscape:cy="401.69492"
   inkscape:window-width="1728"
   inkscape:window-height="1010"
   inkscape:window-x="1913"
   inkscape:window-y="-6"
   inkscape:window-maximized="1"
   inkscape:current-layer="Layer_1" />

<path
   d="M510.485,397.404c-4.373-10.923-16.768-16.235-27.755-11.883l-84.501,33.813c-10.56-20.864-31.957-35.328-56.896-35.328     c-24.725,0-45.973,14.229-56.619,34.816l-86.251-36.971c9.152-11.072,14.869-25.067,14.869-40.512h21.333     c35.285,0,64-28.715,64-64V64.007c0-35.285-28.715-64-64-64H64c-35.285,0-64,28.715-64,64V277.34c0,35.285,28.715,64,64,64     h21.333c0,33.344,25.707,60.48,58.283,63.424l135.637,58.133c6.763,28.096,31.936,49.109,62.08,49.109     c29.995,0,55.061-20.821,61.952-48.725l95.317-38.123C509.525,420.764,514.859,408.37,510.485,397.404z M64,170.674     c0-47.061,38.272-85.333,85.333-85.333c47.061,0,85.333,38.272,85.333,85.333s-38.272,85.333-85.333,85.333     C102.272,256.007,64,217.735,64,170.674z"
   id="path4"
   style="fill:#fc7f7f;fill-opacity:1" /><path
   fill="#040606"
   d="m 189.68706,156.32461 c -22.26061,-21.50392 -36.89434,-43.98786 -40.02776,-50.44471 -3.12342,6.45685 -17.75715,28.94079 -40.01776,50.44471 -14.837071,15.64377 -16.600451,36.17099 -3.31342,48.86801 12.68034,12.51701 27.91076,3.72343 36.70433,-3.12675 -0.20334,4.50012 -1.76338,17.79382 -14.06372,30.50416 h 41.78115 c -12.50034,-12.71034 -14.05039,-26.20738 -14.05039,-30.50416 8.59357,6.85018 23.81065,15.64376 36.70434,3.12675 12.88369,-12.69702 11.13031,-33.42758 -3.71677,-48.86801"
   fill-opacity="1"
   fill-rule="nonzero"
   id="path1443"
   style="stroke-width:0.853357;fill:#fc7f7f;fill-opacity:1" /></svg>
