<?xml version="1.0" encoding="UTF-8" standalone="no"?>
<!-- Uploaded to: SVG Repo, www.svgrepo.com, Generator: SVG Repo Mixer Tools -->

<svg
   fill="#000000"
   height="800px"
   width="800px"
   version="1.1"
   id="Capa_1"
   viewBox="0 0 197.442 197.442"
   xml:space="preserve"
   sodipodi:docname="AceCameraManager.svg"
   inkscape:version="1.2.1 (9c6d41e410, 2022-07-14)"
   xmlns:inkscape="http://www.inkscape.org/namespaces/inkscape"
   xmlns:sodipodi="http://sodipodi.sourceforge.net/DTD/sodipodi-0.dtd"
   xmlns="http://www.w3.org/2000/svg"
   xmlns:svg="http://www.w3.org/2000/svg"><defs
   id="defs8974" /><sodipodi:namedview
   id="namedview8972"
   pagecolor="#ffffff"
   bordercolor="#000000"
   borderopacity="0.25"
   inkscape:showpageshadow="2"
   inkscape:pageopacity="0.0"
   inkscape:pagecheckerboard="0"
   inkscape:deskcolor="#d1d1d1"
   showgrid="false"
   inkscape:zoom="0.295"
   inkscape:cx="174.57627"
   inkscape:cy="401.69492"
   inkscape:window-width="1728"
   inkscape:window-height="1010"
   inkscape:window-x="1913"
   inkscape:window-y="-6"
   inkscape:window-maximized="1"
   inkscape:current-layer="Capa_1" />
<path
   id="path8969"
   d="M 166.3767 0.0057844336 C 165.88543 0.029052721 165.38949 0.12579933 164.90311 0.30223666 L 9.0348032 57.074042 C 7.7888045 57.528042 6.7749272 58.458167 6.2139278 59.660166 C 5.6539283 60.862165 5.5941078 62.237196 6.0481074 63.483195 L 14.970114 87.978825 C 15.129114 88.414824 15.350848 88.807044 15.607848 89.167044 L 15.607848 192.44184 C 15.607848 195.20384 17.847012 197.442 20.608009 197.442 L 186.69597 197.442 C 189.45797 197.442 191.69613 195.20384 191.69613 192.44184 L 191.69613 114.97285 L 191.69613 88.901924 C 191.69613 86.139927 189.45797 83.901763 186.69597 83.901763 L 40.774954 83.901763 L 177.24806 34.195161 C 178.49406 33.741162 179.50894 32.811036 180.06894 31.609037 C 180.62894 30.407039 180.68924 29.032008 180.23524 27.786009 L 171.31179 3.2889325 C 170.54397 1.1796846 168.50555 -0.095044811 166.3767 0.0057844336 z M 148.21213 17.02407 L 145.1782 35.232985 L 125.83794 42.276979 L 128.87188 24.068064 L 148.21213 17.02407 z M 166.12315 18.261939 L 169.12816 26.510059 L 164.46591 28.20779 L 166.12315 18.261939 z M 109.58417 31.092777 L 106.55023 49.302174 L 87.210941 56.346168 L 90.244877 38.136771 L 109.58417 31.092777 z M 70.956201 45.162929 L 67.921783 63.37088 L 48.58394 70.414874 L 51.616911 52.206923 L 70.956201 45.162929 z M 32.328235 59.233082 L 29.293818 77.441033 L 22.65618 79.858926 L 17.156148 64.759144 L 32.328235 59.233082 z M 25.811107 93.902085 L 41.958835 93.902085 L 32.875828 109.97317 L 25.811107 109.97317 L 25.811107 93.902085 z M 62.48779 93.902085 L 83.069769 93.902085 L 73.985798 109.97317 L 53.404783 109.97317 L 62.48779 93.902085 z M 103.5968 93.902085 L 124.18022 93.902085 L 115.09721 109.97317 L 94.515235 109.97317 L 103.5968 93.902085 z M 144.70821 93.902085 L 165.29115 93.902085 L 156.20815 109.97317 L 135.6252 109.97317 L 144.70821 93.902085 z M 181.69581 101.19481 L 181.69581 109.97317 L 176.73517 109.97317 L 181.69581 101.19481 z M 108.32316 126.16428 C 109.8069 129.12318 116.73644 139.42695 127.2773 149.28129 C 134.3077 156.35698 135.13791 165.85674 129.03722 171.67524 C 122.93179 177.41126 115.72616 173.3813 111.65692 170.24215 C 111.65692 172.21119 112.39082 178.39656 118.30998 184.22119 L 98.525775 184.22119 C 104.35024 178.39656 105.08929 172.30437 105.18559 170.24215 C 101.02164 173.3813 93.809694 177.41126 87.805292 171.67524 C 81.513611 165.85674 82.348173 156.45016 89.373837 149.28129 C 99.914699 139.42695 106.84415 129.12318 108.32316 126.16428 z "
   style="fill:#fc7f7f;fill-opacity:1" />
</svg>
