<?xml version="1.0" encoding="UTF-8" standalone="no"?>
<!-- Uploaded to: SVG Repo, www.svgrepo.com, Generator: SVG Repo Mixer Tools -->

<svg
   fill="#000000"
   width="800px"
   height="800px"
   viewBox="0 0 1920 1920"
   version="1.1"
   id="svg5920"
   sodipodi:docname="AceCamera.svg"
   xml:space="preserve"
   inkscape:version="1.2.1 (9c6d41e410, 2022-07-14)"
   xmlns:inkscape="http://www.inkscape.org/namespaces/inkscape"
   xmlns:sodipodi="http://sodipodi.sourceforge.net/DTD/sodipodi-0.dtd"
   xmlns="http://www.w3.org/2000/svg"
   xmlns:svg="http://www.w3.org/2000/svg"><defs
     id="defs5924" /><sodipodi:namedview
     id="namedview5922"
     pagecolor="#ffffff"
     bordercolor="#000000"
     borderopacity="0.25"
     inkscape:showpageshadow="2"
     inkscape:pageopacity="0.0"
     inkscape:pagecheckerboard="0"
     inkscape:deskcolor="#d1d1d1"
     showgrid="false"
     inkscape:zoom="0.295"
     inkscape:cx="164.40678"
     inkscape:cy="401.69492"
     inkscape:window-width="1728"
     inkscape:window-height="1010"
     inkscape:window-x="1913"
     inkscape:window-y="-6"
     inkscape:window-maximized="1"
     inkscape:current-layer="svg5920" /><path
     id="path5918"
     d="M 0,240 V 1680 H 1500.5344 V 1128.1687 L 1920,1574.0578 V 346.05 L 1500.5344,791.83125 V 240 Z m 775.64531,299.40937 c 20.75928,39.55399 117.71123,177.29254 265.19059,309.02344 98.3638,94.58652 109.9796,221.57709 24.6235,299.35779 -85.42238,76.6779 -186.23533,22.8106 -243.16878,-19.1531 0,26.3218 10.26806,109.0049 93.08438,186.8672 H 638.56875 c 81.49152,-77.8623 91.82634,-159.2998 93.17344,-186.8672 -58.25854,41.9637 -159.15974,95.831 -243.16875,19.1531 C 400.54513,1070.0099 412.2273,944.26493 510.525,848.43281 658.00425,716.70191 754.95223,578.96336 775.64531,539.40937 Z"
     style="display:inline;fill:#fc7f7f;fill-opacity:1" /></svg>
